<svg height="512pt" viewBox="0 0 512.03354 512" width="512pt" xmlns="http://www.w3.org/2000/svg"><path d="m425.195312 434.292969c-22.816406 29.414062-56.105468 48.882812-92.929687 54.359375l-94.207031 13.308594c-42.574219 6.332031-85.699219-7.222657-116.992188-36.777344l-68.777344-64.9375c-31.097656-29.496094-47.027343-71.570313-43.265624-114.261719l8.449218-94.804687c3.765625-39.253907 23.59375-75.203126 54.785156-99.328126-16.46875 21.34375-26.582031 46.894532-29.183593 73.726563l-8.449219 94.804687c-3.761719 42.695313 12.167969 84.769532 43.265625 114.261719l68.777344 64.9375c31.292969 29.554688 74.417969 43.113281 116.992187 36.78125l94.207032-13.3125c24.542968-3.636719 47.734374-13.539062 67.328124-28.757812zm0 0" fill="#a4c2f7"/><path d="m483.308594 338.039062-48.46875 82.175782c-2.917969 4.886718-6.140625 9.589844-9.644532 14.078125-19.59375 15.21875-42.785156 25.121093-67.328124 28.757812l-94.207032 13.3125c-42.574218 6.332031-85.699218-7.226562-116.992187-36.78125l-68.777344-64.9375c-31.097656-29.492187-47.027344-71.566406-43.265625-114.261719l8.449219-94.804687c2.601562-26.832031 12.714843-52.382813 29.183593-73.726563 2.730469-2.21875 5.632813-4.269531 8.53125-6.230468l79.105469-52.820313c35.695313-24.261719 80.546875-30.804687 121.683594-17.75l90.453125 28.332031c40.871094 13.132813 73.59375 44.070313 89.003906 84.136719l33.367188 88.660157c15.171875 40.171874 11.085937 85.085937-11.09375 121.859374zm0 0" fill="#d4e1f4"/><path d="m196.246094 179.148438c0 28.273437-22.921875 51.199218-51.199219 51.199218s-51.199219-22.925781-51.199219-51.199218c0-28.277344 22.921875-51.203126 51.199219-51.203126s51.199219 22.925782 51.199219 51.203126zm0 0" fill="#a4c2f7"/><path d="m136.511719 324.214844c0 14.136718-11.460938 25.597656-25.597657 25.597656-14.140624 0-25.601562-11.460938-25.601562-25.597656 0-14.140625 11.460938-25.601563 25.601562-25.601563 14.136719 0 25.597657 11.460938 25.597657 25.601563zm0 0" fill="#a4c2f7"/><path d="m307.179688 110.878906c0 14.140625-11.460938 25.601563-25.601563 25.601563-14.136719 0-25.597656-11.460938-25.597656-25.601563 0-14.136718 11.460937-25.597656 25.597656-25.597656 14.140625 0 25.601563 11.460938 25.601563 25.597656zm0 0" fill="#a4c2f7"/><path d="m366.914062 349.8125c0 9.425781-7.640624 17.066406-17.066406 17.066406-9.425781 0-17.066406-7.640625-17.066406-17.066406s7.640625-17.066406 17.066406-17.066406c9.425782 0 17.066406 7.640625 17.066406 17.066406zm0 0" fill="#a4c2f7"/><path d="m273.046875 273.011719c0 14.140625-11.460937 25.601562-25.601563 25.601562-14.136718 0-25.597656-11.460937-25.597656-25.601562 0-14.136719 11.460938-25.597657 25.597656-25.597657 14.140626 0 25.601563 11.460938 25.601563 25.597657zm0 0" fill="#a4c2f7"/><path d="m246.414062 436.179688c0 14.136718-11.460937 25.597656-25.601562 25.597656-14.136719 0-25.597656-11.460938-25.597656-25.597656 0-14.140626 11.460937-25.601563 25.597656-25.601563 14.140625 0 25.601562 11.460937 25.601562 25.601563zm0 0" fill="#a4c2f7"/><path d="m418.113281 324.214844c-2.269531.019531-4.453125-.871094-6.058593-2.476563-1.605469-1.605469-2.5-3.789062-2.476563-6.058593.015625-1.113282.246094-2.214844.683594-3.242188.433593-1.035156 1.039062-1.984375 1.792969-2.816406 2.472656-2.386719 6.117187-3.089844 9.300781-1.792969 2.144531.777344 3.832031 2.464844 4.609375 4.609375.4375 1.027344.667968 2.128906.679687 3.242188-.03125 2.257812-.914062 4.421874-2.472656 6.058593-.816406.773438-1.773437 1.378907-2.816406 1.792969-1.027344.4375-2.128907.667969-3.242188.683594zm0 0" fill="#bdc3c7"/><path d="m264.511719 375.414062c-2.269531.023438-4.453125-.871093-6.058594-2.476562-1.605469-1.601562-2.496094-3.789062-2.472656-6.058594.011719-1.113281.246093-2.214844.679687-3.242187.433594-1.03125 1.039063-1.984375 1.792969-2.816407 2.472656-2.386718 6.121094-3.085937 9.300781-1.792968 2.144532.777344 3.832032 2.464844 4.609375 4.609375.4375 1.027343.667969 2.128906.683594 3.242187-.035156 2.261719-.917969 4.421875-2.476563 6.058594-.816406.773438-1.769531 1.378906-2.816406 1.792969-1.023437.4375-2.125.667969-3.242187.683593zm0 0" fill="#bdc3c7"/><path d="m196.246094 366.878906c-2.269532.023438-4.453125-.867187-6.058594-2.472656s-2.496094-3.789062-2.476562-6.058594c.015624-1.117187.246093-2.222656.683593-3.253906.4375-1.027344 1.042969-1.976562 1.792969-2.804688 2.472656-2.382812 6.117188-3.089843 9.300781-1.800781 1.03125.4375 1.984375 1.046875 2.816407 1.800781.75.828126 1.355468 1.777344 1.792968 2.804688.4375 1.03125.667969 2.136719.683594 3.253906.078125 3.472656-2.042969 6.621094-5.292969 7.851563-1.027343.433593-2.128906.667969-3.242187.679687zm0 0" fill="#bdc3c7"/><path d="m273.046875 196.214844c-2.269531.019531-4.453125-.871094-6.058594-2.476563s-2.5-3.789062-2.476562-6.058593c.011719-1.117188.246093-2.222657.683593-3.25.433594-1.03125 1.039063-1.980469 1.792969-2.808594 2.472657-2.382813 6.117188-3.089844 9.300781-1.800782 1.03125.441407 1.984376 1.046876 2.816407 1.800782.75.828125 1.355469 1.777344 1.792969 2.808594.4375 1.027343.667968 2.132812.679687 3.25.082031 3.472656-2.039063 6.621093-5.289063 7.851562-1.027343.4375-2.128906.667969-3.242187.683594zm0 0" fill="#bdc3c7"/><path d="m483.308594 338.039062-48.46875 82.175782c-2.917969 4.886718-6.140625 9.589844-9.644532 14.078125-12.050781 9.378906-25.535156 16.757812-39.9375 21.84375 2.5-3.304688 4.808594-6.753907 6.914063-10.324219l48.46875-82.175781c22.179687-36.769531 26.269531-81.683594 11.09375-121.855469l-33.367187-88.660156c-15.40625-40.070313-48.132813-71.003906-89-84.140625l-90.453126-28.328125c-32.117187-10.144532-66.796874-8.480469-97.792968 4.691406l18.773437-12.542969c35.695313-24.261719 80.546875-30.804687 121.683594-17.75l90.453125 28.332031c40.871094 13.132813 73.59375 44.070313 89.003906 84.136719l33.367188 88.660157c15.171875 40.171874 11.085937 85.085937-11.09375 121.859374zm0 0" fill="#a4c2f7"/><path d="m452.246094 204.746094c0 28.277344-22.921875 51.199218-51.199219 51.199218s-51.199219-22.921874-51.199219-51.199218 22.921875-51.199219 51.199219-51.199219 51.199219 22.921875 51.199219 51.199219zm0 0" fill="#a4c2f7"/><path d="m9.023438 285.984375c-3.761719 42.691406 12.167968 84.765625 43.265624 114.261719l68.777344 64.9375c29.148438 27.488281 68.683594 41.160156 108.585938 37.546875-31.089844-2.847657-60.320313-16.070313-82.984375-37.546875l-68.777344-64.9375c-31.097656-29.496094-47.027344-71.570313-43.265625-114.261719l8.449219-94.804687c3.765625-39.253907 23.589843-75.203126 54.78125-99.328126 2.730469-2.21875 5.632812-4.269531 8.535156-6.230468l79.101563-52.820313c19.890624-13.496093 42.929687-21.617187 66.886718-23.578125-32.636718-3.210937-65.367187 5.132813-92.484375 23.578125l-79.105469 52.820313c-2.898437 1.960937-5.800781 4.011718-8.53125 6.230468-31.191406 24.125-51.019531 60.074219-54.785156 99.328126zm0 0" fill="#fff"/><path d="m17.550781 286.726562c-1.4375 17.363282.480469 34.84375 5.648438 51.480469 5.296875 16.585938 13.785156 31.976563 24.992187 45.304688 5.886719 6.605469 12.140625 12.871093 18.730469 18.773437l19.996094 18.882813 39.996093 37.769531-11.734374 12.433594-39.96875-37.769532-20.003907-18.875-10-9.550781c-3.515625-3.367187-6.828125-6.953125-9.992187-10.628906-12.675782-15.058594-22.273438-32.453125-28.253906-51.203125-5.847657-18.773438-8.015626-38.5-6.382813-58.09375zm0 0" fill="#fff"/><g fill="#428dff"><path d="m421.355469 307.828125c-3.183594-1.296875-6.828125-.59375-9.300781 1.792969-.753907.832031-1.359376 1.78125-1.792969 2.816406-.4375 1.027344-.667969 2.128906-.683594 3.242188-.023437 2.269531.871094 4.453124 2.476563 6.058593 1.605468 1.605469 3.789062 2.496094 6.058593 2.476563 1.113281-.015625 2.214844-.246094 3.242188-.683594 1.042969-.414062 2-1.019531 2.816406-1.792969 1.558594-1.636719 2.441406-3.800781 2.472656-6.058593-.011719-1.113282-.242187-2.214844-.679687-3.242188-.777344-2.144531-2.464844-3.832031-4.609375-4.609375zm0 0"/><path d="m267.753906 359.027344c-3.179687-1.292969-6.828125-.59375-9.300781 1.792968-.753906.832032-1.359375 1.785157-1.792969 2.816407-.433594 1.027343-.667968 2.128906-.679687 3.242187-.023438 2.269532.867187 4.457032 2.472656 6.058594 1.605469 1.605469 3.789063 2.5 6.058594 2.476562 1.117187-.015624 2.21875-.246093 3.242187-.683593 1.046875-.414063 2-1.019531 2.816406-1.792969 1.558594-1.636719 2.441407-3.796875 2.476563-6.058594-.015625-1.113281-.246094-2.214844-.683594-3.242187-.777343-2.144531-2.464843-3.832031-4.609375-4.609375zm0 0"/><path d="m199.488281 366.171875c3.242188-1.226563 5.359375-4.359375 5.292969-7.824219-.015625-1.117187-.246094-2.222656-.683594-3.253906-.433594-1.03125-1.039062-1.980469-1.792968-2.804688-.832032-.753906-1.785157-1.363281-2.816407-1.800781-3.183593-1.289062-6.828125-.582031-9.300781 1.800781-.753906.824219-1.359375 1.773438-1.792969 2.804688-.4375 1.03125-.667969 2.136719-.683593 3.253906-.019532 2.269532.871093 4.453125 2.476562 6.058594s3.789062 2.496094 6.058594 2.472656c1.117187-.019531 2.21875-.261718 3.242187-.707031zm0 0"/><path d="m276.289062 179.796875c-3.183593-1.289063-6.828124-.582031-9.300781 1.796875-.753906.828125-1.359375 1.777344-1.792969 2.808594-.441406 1.039062-.671874 2.152344-.683593 3.277344-.023438 2.269531.871093 4.453124 2.476562 6.058593s3.789063 2.496094 6.058594 2.476563c1.113281-.015625 2.214844-.246094 3.242187-.683594 3.25-1.230469 5.371094-4.378906 5.289063-7.851562-.011719-1.117188-.242187-2.222657-.679687-3.25-.433594-1.03125-1.039063-1.980469-1.792969-2.808594-.832031-.761719-1.78125-1.378906-2.816407-1.824219zm0 0"/><path d="m19.828125 361.34375c1.117187-.042969 2.210937-.316406 3.21875-.804688 1.992187-1.03125 3.554687-2.734374 4.410156-4.8125.703125-2.03125.679688-4.242187-.070312-6.253906-.890625-1.964844-2.46875-3.535156-4.4375-4.421875l-1.515625-.492187c-.558594-.136719-1.132813-.199219-1.707032-.191406-.535156-.078126-1.078124-.078126-1.613281 0-.5625.09375-1.121093.230468-1.664062.402343-2.144531.777344-3.898438 2.375-4.871094 4.4375-.453125 1.078125-.664063 2.246094-.617187 3.414063.015624 3.613281 2.195312 6.863281 5.53125 8.25 1.066406.382812 2.203124.542968 3.335937.472656zm0 0"/><path d="m469.023438 124.535156c-16.46875-42.4375-51.140626-75.21875-94.429688-89.285156l-90.453125-28.382812c-43.625-13.628907-91.078125-6.707032-128.992187 18.816406l-79.113282 52.769531c-38.132812 25.285156-62.792968 66.460937-67.078125 112.015625l-8.414062 94.765625c-1.023438 12.03125-.5976565 24.144531 1.269531 36.078125.304688 2.304688 1.554688 4.382812 3.453125 5.726562s4.273437 1.832032 6.550781 1.347657c4.429688-.996094 7.382813-5.195313 6.824219-9.703125-1.65625-10.570313-2.035156-21.296875-1.132813-31.957032l8.394532-94.71875c3.832031-40.414062 25.714844-76.9375 59.546875-99.371093l79.222656-52.804688c33.605469-22.636719 75.675781-28.773437 114.347656-16.683593l90.453125 28.363281c38.328125 12.460937 69.027344 41.480469 83.625 79.046875l33.375 88.582031c14.285156 37.78125 10.417969 80.027344-10.488281 114.585937l-48.484375 82.125c-20.824219 34.859376-56.242188 58.480469-96.425781 64.308594l-94.269531 13.328125c-39.980469 6.046875-80.515626-6.6875-109.859376-34.507812l-39.996093-37.769531-20.027344-18.902344c-6.589844-5.898438-12.84375-12.167969-18.730469-18.773438l-4.992187-6.253906c-2.808594-3.597656-7.914063-4.421875-11.714844-1.894531-1.925781 1.300781-3.230469 3.339843-3.601563 5.632812-.367187 2.292969.226563 4.636719 1.648438 6.476563l5.648438 7.074218c3.191406 3.679688 6.476562 7.261719 9.992187 10.632813l10.035156 9.546875 20.003907 18.878906 39.96875 37.742188c27.515624 26.171875 64.074218 40.707031 102.050781 40.574218 7.355469 0 14.699219-.527343 21.980469-1.578124l94.242187-13.328126c45.316406-6.535156 85.269531-33.160156 108.742187-72.472656l48.449219-82.109375c23.570313-39.015625 27.910157-86.691406 11.777344-129.320312zm0 0"/><path d="m460.78125 204.746094c0-28.496094-20.128906-53.027344-48.078125-58.589844-27.945313-5.558594-55.933594 9.394531-66.839844 35.722656-10.910156 26.324219-1.703125 56.691406 21.988281 72.527344 23.695313 15.832031 55.273438 12.726562 75.425782-7.417969 11.238281-11.179687 17.542968-26.390625 17.503906-42.242187zm-59.734375 42.667968c-20.355469 0-37.878906-14.378906-41.847656-34.34375-3.972657-19.964843 6.714843-39.953124 25.519531-47.742187 18.808594-7.789063 40.496094-1.207031 51.804688 15.71875 11.308593 16.925781 9.082031 39.480469-5.3125 53.875-7.984376 8.023437-18.84375 12.523437-30.164063 12.492187zm0 0"/><path d="m145.046875 119.414062c-28.5-.003906-53.03125 20.125-58.589844 48.078126-5.5625 27.949218 9.398438 55.933593 35.726563 66.839843s56.691406 1.695313 72.527344-22c15.832031-23.695312 12.71875-55.273437-7.433594-75.425781-11.175782-11.238281-26.382813-17.539062-42.230469-17.492188zm30.164063 89.90625c-14.394532 14.390626-36.949219 16.609376-53.875 5.300782-16.921876-11.3125-23.5-33-15.707032-51.804688 7.789063-18.804687 27.78125-29.488281 47.742188-25.515625 19.964844 3.972657 34.34375 21.492188 34.339844 41.847657.03125 11.324218-4.46875 22.1875-12.5 30.171874zm0 0"/><path d="m86.78125 348.34375c11.515625 11.515625 29.5625 13.289062 43.101562 4.238281 13.535157-9.046875 18.796876-26.402343 12.5625-41.445312-6.234374-15.042969-22.226562-23.585938-38.199218-20.40625-15.96875 3.179687-27.46875 17.199219-27.464844 33.484375-.023438 9.054687 3.578125 17.746094 10 24.128906zm12.066406-36.195312c4.285156-4.4375 10.628906-6.21875 16.597656-4.65625 5.964844 1.5625 10.625 6.222656 12.1875 12.191406 1.5625 5.964844-.21875 12.3125-4.652343 16.597656-6.753907 6.449219-17.382813 6.449219-24.132813 0-6.664062-6.667969-6.664062-17.46875 0-24.132812zm0 0"/><path d="m305.710938 135.011719c11.515624-11.515625 13.289062-29.5625 4.238281-43.101563-9.046875-13.535156-26.402344-18.796875-41.445313-12.5625-15.042968 6.234375-23.589844 22.226563-20.40625 38.199219 3.179688 15.96875 17.199219 27.46875 33.480469 27.464844 9.058594.027343 17.75-3.574219 24.132813-10zm-41.199219-24.132813c0-7.722656 5.1875-14.488281 12.648437-16.488281 7.460938-2 15.335938 1.261719 19.199219 7.953125s2.75 15.140625-2.714844 20.601562c-6.75 6.449219-17.378906 6.449219-24.132812 0-3.210938-3.191406-5.011719-7.535156-5-12.066406zm0 0"/><path d="m324.246094 349.8125c0 10.355469 6.234375 19.691406 15.800781 23.652344 9.566406 3.964844 20.574219 1.777344 27.898437-5.542969 8.195313-8.191406 9.863282-20.867187 4.074219-30.902344-5.792969-10.035156-17.605469-14.929687-28.796875-11.933593-11.191406 3-18.976562 13.140624-18.976562 24.726562zm19.566406-6.03125c2.144531-2.21875 5.316406-3.109375 8.300781-2.328125 2.980469.78125 5.3125 3.109375 6.09375 6.09375s-.109375 6.15625-2.328125 8.300781c-2.140625 2.21875-5.316406 3.105469-8.296875 2.324219-2.984375-.78125-5.316406-3.109375-6.097656-6.09375s.109375-6.15625 2.328125-8.296875zm0 0"/><path d="m223.3125 248.882812c-11.511719 11.515626-13.285156 29.558594-4.238281 43.097657 9.050781 13.539062 26.402343 18.800781 41.445312 12.566406 15.046875-6.234375 23.589844-22.226563 20.410157-38.199219-3.179688-15.972656-17.199219-27.472656-33.484376-27.46875-9.058593-.023437-17.746093 3.578125-24.132812 10.003906zm41.199219 24.128907c.011719 4.53125-1.789063 8.875-5 12.066406-6.75 6.449219-17.378907 6.449219-24.132813 0-5.460937-5.460937-6.574218-13.910156-2.714844-20.601563 3.863282-6.691406 11.738282-9.953124 19.199219-7.953124 7.464844 2 12.652344 8.765624 12.648438 16.488281zm0 0"/><path d="m186.679688 436.179688c-.003907 16.285156 11.496093 30.304687 27.46875 33.484374 15.96875 3.179688 31.964843-5.367187 38.199218-20.410156 6.234375-15.042968.972656-32.394531-12.566406-41.445312-13.539062-9.050782-31.582031-7.273438-43.101562 4.238281-6.421876 6.386719-10.023438 15.074219-10 24.132813zm22.066406-12.066407c6.667968-6.664062 17.472656-6.664062 24.136718.003907 6.664063 6.667968 6.664063 17.472656-.003906 24.136718-6.753906 6.441406-17.375 6.441406-24.132812 0-3.199219-3.199218-5-7.542968-5-12.070312s1.800781-8.871094 5-12.070313zm0 0"/></g></svg>