<?xml version="1.0" standalone="no"?>
<svg
  width="600"
  height="600"
  viewBox="0 0 600 600"
  xmlns="http://www.w3.org/2000/svg"
>
  <g transform="translate(300,300)">
    <path d="M87.4,-128.9C113.2,-101.5,134.1,-75.9,159.6,-41.5C185.1,-7,215.3,36.4,216.6,82.1C217.9,127.9,190.3,176,149.4,173.9C108.5,171.7,54.3,119.4,13.8,100.4C-26.6,81.3,-53.3,95.7,-98.5,99.2C-143.6,102.7,-207.3,95.4,-232.5,64.5C-257.7,33.7,-244.4,-20.7,-227.4,-74.1C-210.3,-127.5,-189.5,-179.8,-151,-203.1C-112.5,-226.5,-56.2,-220.7,-12.7,-203.2C30.8,-185.7,61.5,-156.3,87.4,-128.9Z" fill="#f2705b" />
  </g>
</svg>
  