<?xml version="1.0" standalone="no"?>
<svg
  width="600"
  height="600"
  viewBox="0 0 600 600"
  xmlns="http://www.w3.org/2000/svg"
>
  <g transform="translate(300,300)">
    <path d="M131.6,-222.1C160.1,-186.4,165.5,-132.3,184.8,-85.7C204.1,-39.1,237.2,-0.1,232.1,33.2C227,66.5,183.8,94.2,149,122.7C114.3,151.2,88,180.7,51.7,204.2C15.4,227.7,-30.9,245.3,-65.4,231.2C-99.8,217.2,-122.5,171.5,-154.8,134.1C-187.1,96.8,-229.2,67.9,-247.4,27.6C-265.7,-12.8,-260.2,-64.5,-238.5,-107.6C-216.8,-150.7,-179,-185.2,-136.5,-214.4C-94.1,-243.7,-47,-267.9,2.3,-271.4C51.5,-274.9,103.1,-257.7,131.6,-222.1Z" fill="#00008b" />
    <animate>
      repeatCount="indefinite"
      fill="#00008b"
      attributeName="d"
      dur="12s"
      values=""
    </animate>
  </g>
</svg>
  