<?xml version="1.0" standalone="no"?>
<svg
  width="600"
  height="600"
  viewBox="0 0 600 600"
  xmlns="http://www.w3.org/2000/svg"
>
  <g transform="translate(300,300)">
    <path d="M141.6,-216.6C185.9,-191.9,225.7,-156.6,249.9,-111.8C274.1,-66.9,282.5,-12.5,274.9,39.4C267.3,91.4,243.6,141,208.5,179.4C173.3,217.9,126.6,245.2,76.6,259.2C26.5,273.1,-27,273.8,-75.9,259.1C-124.8,244.5,-168.9,214.6,-201.5,175.5C-234.1,136.3,-255.1,88,-264,37C-272.9,-14.1,-269.7,-67.9,-250.6,-116.3C-231.4,-164.7,-196.2,-207.7,-151.8,-232.4C-107.4,-257.1,-53.7,-263.6,-2.5,-259.6C48.7,-255.7,97.3,-241.4,141.6,-216.6Z" fill="#00008b" />
  </g>
</svg>
  