<?xml version="1.0" standalone="no"?><svg xmlns="http://www.w3.org/2000/svg" viewBox="0 0 1440 320"><path fill="#000b76" fill-opacity="1" d="M0,288L10,282.7C20,277,40,267,60,266.7C80,267,100,277,120,272C140,267,160,245,180,224C200,203,220,181,240,186.7C260,192,280,224,300,224C320,224,340,192,360,160C380,128,400,96,420,106.7C440,117,460,171,480,170.7C500,171,520,117,540,101.3C560,85,580,107,600,122.7C620,139,640,149,660,176C680,203,700,245,720,234.7C740,224,760,160,780,160C800,160,820,224,840,250.7C860,277,880,267,900,245.3C920,224,940,192,960,197.3C980,203,1000,245,1020,229.3C1040,213,1060,139,1080,106.7C1100,75,1120,85,1140,85.3C1160,85,1180,75,1200,74.7C1220,75,1240,85,1260,85.3C1280,85,1300,75,1320,58.7C1340,43,1360,21,1380,48C1400,75,1420,149,1430,186.7L1440,224L1440,0L1430,0C1420,0,1400,0,1380,0C1360,0,1340,0,1320,0C1300,0,1280,0,1260,0C1240,0,1220,0,1200,0C1180,0,1160,0,1140,0C1120,0,1100,0,1080,0C1060,0,1040,0,1020,0C1000,0,980,0,960,0C940,0,920,0,900,0C880,0,860,0,840,0C820,0,800,0,780,0C760,0,740,0,720,0C700,0,680,0,660,0C640,0,620,0,600,0C580,0,560,0,540,0C520,0,500,0,480,0C460,0,440,0,420,0C400,0,380,0,360,0C340,0,320,0,300,0C280,0,260,0,240,0C220,0,200,0,180,0C160,0,140,0,120,0C100,0,80,0,60,0C40,0,20,0,10,0L0,0Z"></path></svg>